<svg width="71" height="71" viewBox="0 0 71 71" fill="none" xmlns="http://www.w3.org/2000/svg">
<path d="M35.5 69.5C16.7223 69.5 1.5 54.2777 1.5 35.5C1.5 16.7223 16.7223 1.5 35.5 1.5C54.2777 1.5 69.5 16.7223 69.5 35.5C69.5 54.2777 54.2777 69.5 35.5 69.5Z" stroke="white" stroke-width="3"/>
<g clip-path="url(#clip0_761_30)">
<mask id="mask0_761_30" style="mask-type:luminance" maskUnits="userSpaceOnUse" x="17" y="18" width="36" height="36">
<path d="M53 18H17V54H53V18Z" fill="white"/>
</mask>
<g mask="url(#mask0_761_30)">
<path d="M47.0527 52.9796C48.4133 54.3401 50.619 54.3401 51.9796 52.9796C53.3401 51.619 53.3401 49.4133 51.9796 48.0527L47.0527 52.9796ZM22.9473 19.0204C21.5868 17.6599 19.3809 17.6599 18.0204 19.0204C16.6599 20.3809 16.6599 22.5868 18.0204 23.9473L22.9473 19.0204ZM51.9796 23.9473C53.3401 22.5868 53.3401 20.3809 51.9796 19.0204C50.619 17.6599 48.4133 17.6599 47.0527 19.0204L51.9796 23.9473ZM18.0204 48.0527C16.6599 49.4133 16.6599 51.619 18.0204 52.9796C19.3809 54.3401 21.5868 54.3401 22.9473 52.9796L18.0204 48.0527ZM51.9796 48.0527L37.4634 33.5366L32.5366 38.4634L47.0527 52.9796L51.9796 48.0527ZM37.4634 33.5366L22.9473 19.0204L18.0204 23.9473L32.5366 38.4634L37.4634 33.5366ZM37.4634 38.4634L51.9796 23.9473L47.0527 19.0204L32.5366 33.5366L37.4634 38.4634ZM32.5366 33.5366L18.0204 48.0527L22.9473 52.9796L37.4634 38.4634L32.5366 33.5366Z" fill="white"/>
</g>
</g>
<defs>
<clipPath id="clip0_761_30">
<rect width="36" height="36" fill="white" transform="translate(17 18)"/>
</clipPath>
</defs>
</svg>
